<?xml version="1.0" encoding="utf-8"?>
<svg width="3608.002px" height="1083.0127px" viewBox="0 0 3608.002 1083.0127" version="1.1" xmlns:xlink="http://www.w3.org/1999/xlink" xmlns="http://www.w3.org/2000/svg">
  <path d="M0 0L3606.91 0L3606.91 1080L0 1080L0 0Z" id="Rectangle" fill="#212121" fill-rule="evenodd" stroke="none" />
  <path d="M3605.91 -0.157593L3605.91 1079.84L-1.09033 1079.84L3605.91 -0.157593Z" id="Triangle-4" fill="#B37AFF" fill-rule="evenodd" stroke="none" />
  <path d="M1803.41 1079.84L3606.91 -0.157593L-0.090332 -0.157593L1803.41 1079.84Z" id="Triangle-6" fill="#111111" fill-rule="evenodd" stroke="none" />
  <path d="M3606.91 1079.84L780.909 -0.159241L3606.91 -0.166321L3606.91 1079.84Z" id="Triangle-5" fill="#2F2F2F" fill-rule="evenodd" stroke="none" />
  <path d="M3606.91 -0.157593L3606.91 1079.84L2522.91 1079.84L3606.91 -0.157593Z" id="Triangle-7" fill="#E8E8E8" fill-rule="evenodd" stroke="none" />
  <path d="M781.41 -0.157593L1562.91 1079.84L-0.090332 1079.84L781.41 -0.157593Z" id="Triangle-3" fill="#7F649F" fill-rule="evenodd" stroke="none" />
  <path d="M-0.090332 435.843L1372.91 1079.84L-0.090332 1079.84L-0.090332 435.843Z" id="Triangle" fill="#C495FD" fill-rule="evenodd" stroke="none" />
  <path d="M1014.91 322.842L561.91 322.842L1014.91 322.842Z" id="Triangle-8" fill="#D3D3D3" fill-rule="evenodd" stroke="none" />
  <path d="M780.91 -0.157593L960.91 247.842L601.91 247.842L780.91 -0.157593Z" id="Triangle-9" fill="#D3D3D3" fill-rule="evenodd" stroke="none" />
  <path d="M797.91 -0.157593L-1.09204 1082.85L-1.09204 -0.157593L797.91 -0.157593Z" id="Triangle-2" fill="#2F2F2F" fill-rule="evenodd" stroke="none" />
</svg>