<?xml version="1.0" encoding="utf-8"?>
<svg width="519.0002px" height="692.9354px" viewBox="0 0 519.0002 692.9354" version="1.1" xmlns:xlink="http://www.w3.org/1999/xlink" xmlns="http://www.w3.org/2000/svg">
  <path d="M519 291.021C455.972 364.465 362.468 410.992 258.097 410.992C155.264 410.992 62.9797 365.826 0 294.249L0 0L519 0L519 291.021L519 291.021Z" id="Vector" fill="#2F2F2F" fill-rule="evenodd" stroke="none" />
  <path d="M0 432.032C0 288.714 116.182 172.532 259.5 172.532C402.818 172.532 519 288.714 519 432.032C519 575.35 402.818 691.532 259.5 691.532C116.182 691.532 0 575.35 0 432.032Z" id="Oval" fill="#26202E" fill-rule="evenodd" stroke="none" />
  <path d="M221.305 0C244.376 29.1185 258.097 65.6026 258.097 105.203C258.097 200.49 178.654 277.735 80.6554 277.735C51.6122 277.735 24.1988 270.951 0 258.922L0 0L221.305 0L221.305 0Z" id="Vector" fill="#BC87FB" fill-rule="evenodd" stroke="none" />
  <path d="M519 0L519 692.935L0 692.935L519 0Z" id="Triangle" fill="#474747" fill-rule="evenodd" stroke="none" />
  <path d="M0 277.735L519 692.935L0 692.935L0 277.735Z" id="Triangle-2" fill="#111111" fill-rule="evenodd" stroke="none" />
  <path d="M519 0L519 346.468L259.5 0L519 0Z" id="Triangle-3" fill="#282828" fill-rule="evenodd" stroke="none" />
  <path d="M467.801 502.167C396.142 502.167 338.051 560.258 338.051 631.917C338.051 653.975 343.555 674.747 353.265 692.935L519 692.935L519 512.66C503.292 505.907 485.983 502.167 467.801 502.167L467.801 502.167Z" id="Vector" fill="#75559E" fill-rule="evenodd" stroke="none" />
</svg>